<?xml version="1.0" encoding="UTF-8" standalone="no"?>
<!DOCTYPE svg PUBLIC "-//W3C//DTD SVG 20010904//EN"
              "http://www.w3.org/TR/2001/REC-SVG-20010904/DTD/svg10.dtd">

<svg xmlns="http://www.w3.org/2000/svg"
     width="19.9444in" height="4.22222in"
     viewBox="0 0 1436 304">
  <path id="Sélection"
        fill="black" stroke="black" stroke-width="1"
        d="M 108.00,182.00
           C 108.00,182.00 108.00,164.00 108.00,164.00
             108.06,154.48 112.51,152.49 119.00,146.00
             119.00,146.00 145.00,120.00 145.00,120.00
             148.99,116.01 161.75,102.16 166.00,100.60
             167.94,99.88 170.91,100.00 173.00,100.00
             173.00,100.00 196.00,100.00 196.00,100.00
             196.00,100.00 180.09,117.00 180.09,117.00
             180.09,117.00 140.00,158.00 140.00,158.00
             140.00,158.00 155.00,158.00 155.00,158.00
             155.00,158.00 171.00,159.00 171.00,159.00
             171.00,159.00 196.00,159.00 196.00,159.00
             196.00,159.00 196.00,212.00 196.00,212.00
             196.00,212.00 166.00,212.00 166.00,212.00
             166.00,212.00 166.00,182.00 166.00,182.00
             166.00,182.00 108.00,182.00 108.00,182.00 Z
           M 208.00,100.00
           C 208.00,100.00 268.00,100.00 268.00,100.00
             268.00,100.00 268.00,122.00 268.00,122.00
             268.00,124.09 268.12,127.06 267.40,129.00
             266.23,132.18 262.41,135.59 260.00,138.00
             260.00,138.00 239.60,159.00 239.60,159.00
             236.79,163.44 238.00,180.96 238.00,187.00
             238.00,187.00 268.00,159.00 268.00,159.00
             268.00,159.00 268.00,188.00 268.00,188.00
             268.00,188.00 208.00,188.00 208.00,188.00
             208.00,188.00 208.00,165.00 208.00,165.00
             208.00,163.05 207.87,159.95 208.60,158.17
             209.59,155.73 213.99,151.99 216.00,150.00
             216.00,150.00 235.40,130.00 235.40,130.00
             238.21,125.56 237.00,108.04 237.00,102.00
             237.00,102.00 208.00,129.00 208.00,129.00
             208.00,129.00 208.00,100.00 208.00,100.00 Z
           M 358.00,172.00
           C 358.39,164.07 366.62,138.28 369.29,129.00
             370.98,123.12 371.39,117.09 379.00,117.09
             386.61,117.09 387.02,123.12 388.71,129.00
             391.38,138.28 399.61,164.07 400.00,172.00
             400.00,172.00 391.00,172.00 391.00,172.00
             391.00,172.00 388.00,160.00 388.00,160.00
             388.00,160.00 370.00,160.00 370.00,160.00
             370.00,160.00 367.00,172.00 367.00,172.00
             367.00,172.00 358.00,172.00 358.00,172.00 Z
           M 413.00,172.00
           C 413.00,172.00 413.00,126.00 413.00,126.00
             413.00,123.70 412.62,119.59 414.60,118.02
             416.19,116.77 420.01,117.00 422.00,117.00
             427.94,116.99 439.00,116.68 443.66,120.65
             449.18,125.35 449.60,141.23 445.28,146.78
             443.66,148.85 442.32,149.19 440.00,150.00
             440.00,150.00 449.00,172.00 449.00,172.00
             449.00,172.00 440.39,170.98 440.39,170.98
             440.39,170.98 429.61,153.02 429.61,153.02
             429.61,153.02 422.00,152.00 422.00,152.00
             422.00,152.00 422.00,172.00 422.00,172.00
             422.00,172.00 413.00,172.00 413.00,172.00 Z
           M 472.00,126.00
           C 467.71,126.00 457.46,127.62 459.33,120.14
             460.29,116.33 464.96,117.01 468.00,117.00
             468.00,117.00 486.00,117.00 486.00,117.00
             489.61,117.05 494.23,116.97 493.80,121.99
             493.70,123.16 493.35,124.23 492.40,124.98
             490.55,126.44 483.54,126.00 481.00,126.00
             481.00,126.00 481.00,172.00 481.00,172.00
             481.00,172.00 472.00,172.00 472.00,172.00
             472.00,172.00 472.00,126.00 472.00,126.00 Z
           M 506.00,172.00
           C 506.00,172.00 506.00,131.00 506.00,131.00
             506.00,127.35 504.63,118.61 509.13,117.47
             514.26,116.18 514.93,120.15 515.00,124.00
             515.00,124.00 515.00,172.00 515.00,172.00
             515.00,172.00 506.00,172.00 506.00,172.00 Z
           M 533.00,172.00
           C 533.00,172.00 533.00,126.00 533.00,126.00
             533.01,119.26 532.51,117.14 540.00,117.00
             540.00,117.00 554.00,117.00 554.00,117.00
             556.08,117.01 559.74,116.85 561.43,118.17
             563.66,119.94 563.22,124.16 560.69,125.40
             558.65,126.40 545.19,126.00 542.00,126.00
             542.00,126.00 542.00,142.15 542.00,142.15
             542.00,142.15 557.77,142.15 557.77,142.15
             560.51,143.11 561.50,146.35 559.96,148.40
             558.09,150.90 545.40,150.00 542.00,150.00
             542.00,150.00 542.00,172.00 542.00,172.00
             542.00,172.00 533.00,172.00 533.00,172.00 Z
           M 577.00,172.00
           C 577.00,172.00 577.00,124.00 577.00,124.00
             577.07,120.15 577.74,116.18 582.87,117.47
             586.69,118.44 585.99,122.96 586.00,126.00
             586.00,126.00 586.00,172.00 586.00,172.00
             586.00,172.00 577.00,172.00 577.00,172.00 Z
           M 616.00,117.43
           C 625.69,116.23 636.74,116.70 639.28,128.00
             639.58,129.82 640.19,132.94 639.28,134.69
             638.22,137.23 633.64,137.58 631.60,135.98
             629.21,134.10 630.83,130.25 627.69,127.60
             624.41,124.84 615.48,125.25 613.17,129.15
             611.79,131.48 612.00,135.33 612.00,138.00
             611.99,143.25 610.64,159.11 614.43,162.40
             616.24,163.97 618.74,163.99 621.00,163.99
             622.48,163.99 624.57,163.95 625.94,163.40
             632.41,160.80 627.51,153.98 634.05,153.38
             635.09,153.03 636.74,153.14 637.69,153.38
             642.36,155.86 638.41,166.14 635.77,168.77
             631.28,173.26 622.01,172.08 616.00,172.00
             605.35,171.85 603.05,166.71 603.00,157.00
             603.00,157.00 603.00,139.00 603.00,139.00
             603.00,134.32 602.35,126.99 604.85,123.04
             607.67,118.60 611.28,118.22 616.00,117.43 Z
           M 655.00,172.00
           C 655.00,172.00 655.00,124.00 655.00,124.00
             655.07,120.15 655.74,116.18 660.87,117.47
             664.69,118.44 663.99,122.96 664.00,126.00
             664.00,126.00 664.00,172.00 664.00,172.00
             664.00,172.00 655.00,172.00 655.00,172.00 Z
           M 678.00,172.00
           C 678.39,164.07 686.62,138.28 689.29,129.00
             690.98,123.12 691.39,117.09 699.00,117.09
             706.61,117.09 707.02,123.12 708.71,129.00
             711.38,138.28 719.61,164.07 720.00,172.00
             720.00,172.00 711.00,172.00 711.00,172.00
             711.00,172.00 708.00,160.00 708.00,160.00
             708.00,160.00 690.00,160.00 690.00,160.00
             690.00,160.00 687.00,172.00 687.00,172.00
             687.00,172.00 678.00,172.00 678.00,172.00 Z
           M 733.00,172.00
           C 733.00,172.00 733.00,126.00 733.00,126.00
             733.00,124.02 732.77,120.17 734.02,118.60
             734.79,117.63 735.85,117.31 737.04,117.25
             742.21,117.00 741.98,121.24 742.00,125.00
             742.00,125.00 742.00,164.00 742.00,164.00
             742.00,164.00 757.00,164.00 757.00,164.00
             757.00,164.00 762.98,165.60 762.98,165.60
             762.98,165.60 764.00,172.00 764.00,172.00
             764.00,172.00 733.00,172.00 733.00,172.00 Z
           M 802.00,172.00
           C 802.00,172.00 802.00,124.00 802.00,124.00
             802.07,120.15 802.74,116.18 807.87,117.47
             811.69,118.44 810.99,122.96 811.00,126.00
             811.00,126.00 811.00,172.00 811.00,172.00
             811.00,172.00 802.00,172.00 802.00,172.00 Z
           M 829.00,172.00
           C 829.00,172.00 829.00,126.00 829.00,126.00
             829.01,122.63 828.28,117.44 833.04,117.33
             838.07,117.22 839.92,122.35 842.00,126.00
             842.00,126.00 857.00,152.00 857.00,152.00
             857.00,152.00 857.00,125.00 857.00,125.00
             857.02,121.24 856.79,117.00 861.96,117.25
             863.15,117.31 864.21,117.63 864.98,118.60
             866.15,120.06 865.99,123.19 866.00,125.00
             866.00,125.00 866.00,172.00 866.00,172.00
             866.00,172.00 858.21,170.98 858.21,170.98
             858.21,170.98 850.77,160.00 850.77,160.00
             850.77,160.00 838.00,138.00 838.00,138.00
             838.00,138.00 838.00,172.00 838.00,172.00
             838.00,172.00 829.00,172.00 829.00,172.00 Z
           M 892.00,126.00
           C 887.71,126.00 877.46,127.62 879.33,120.14
             880.29,116.33 884.96,117.01 888.00,117.00
             888.00,117.00 906.00,117.00 906.00,117.00
             909.61,117.05 914.23,116.97 913.80,121.99
             913.70,123.16 913.35,124.23 912.40,124.98
             910.55,126.44 903.54,126.00 901.00,126.00
             901.00,126.00 901.00,172.00 901.00,172.00
             901.00,172.00 892.00,172.00 892.00,172.00
             892.00,172.00 892.00,126.00 892.00,126.00 Z
           M 926.00,172.00
           C 926.00,172.00 926.00,125.00 926.00,125.00
             926.05,117.67 926.67,117.05 934.00,117.00
             937.52,116.98 952.27,116.33 954.40,118.02
             955.76,119.10 956.07,121.26 955.67,122.86
             955.36,124.10 954.85,124.83 953.69,125.40
             951.65,126.40 938.19,126.00 935.00,126.00
             935.00,129.62 934.04,137.80 937.31,139.98
             940.98,142.42 955.99,138.33 953.34,145.87
             951.70,150.55 939.17,149.00 935.00,149.00
             935.00,149.00 935.00,164.00 935.00,164.00
             938.68,164.00 952.96,163.05 954.98,165.60
             956.16,167.09 955.98,170.17 956.00,172.00
             956.00,172.00 926.00,172.00 926.00,172.00 Z
           M 972.00,172.00
           C 972.00,172.00 972.00,126.00 972.00,126.00
             972.00,124.02 971.77,120.17 973.02,118.60
             973.79,117.63 974.85,117.31 976.04,117.25
             981.21,117.00 980.98,121.24 981.00,125.00
             981.00,125.00 981.00,164.00 981.00,164.00
             981.00,164.00 996.00,164.00 996.00,164.00
             996.00,164.00 1001.98,165.60 1001.98,165.60
             1001.98,165.60 1003.00,172.00 1003.00,172.00
             1003.00,172.00 972.00,172.00 972.00,172.00 Z
           M 1015.00,172.00
           C 1015.00,172.00 1015.00,126.00 1015.00,126.00
             1015.00,124.02 1014.77,120.17 1016.02,118.60
             1016.79,117.63 1017.85,117.31 1019.04,117.25
             1024.21,117.00 1023.98,121.24 1024.00,125.00
             1024.00,125.00 1024.00,164.00 1024.00,164.00
             1024.00,164.00 1039.00,164.00 1039.00,164.00
             1039.00,164.00 1044.98,165.60 1044.98,165.60
             1044.98,165.60 1046.00,172.00 1046.00,172.00
             1046.00,172.00 1015.00,172.00 1015.00,172.00 Z
           M 1058.00,172.00
           C 1058.00,172.00 1058.00,124.00 1058.00,124.00
             1058.07,120.15 1058.74,116.18 1063.87,117.47
             1067.69,118.44 1066.99,122.96 1067.00,126.00
             1067.00,126.00 1067.00,172.00 1067.00,172.00
             1067.00,172.00 1058.00,172.00 1058.00,172.00 Z
           M 1102.00,143.00
           C 1102.00,143.00 1111.00,143.00 1111.00,143.00
             1112.99,143.00 1116.81,142.77 1118.40,144.02
             1120.38,145.59 1120.00,149.70 1120.00,152.00
             1120.01,157.03 1120.58,163.62 1117.30,167.79
             1114.35,171.55 1110.41,171.94 1106.00,172.00
             1093.91,172.16 1084.20,173.86 1084.00,158.00
             1084.00,158.00 1084.00,137.00 1084.00,137.00
             1084.00,133.62 1083.71,128.05 1084.89,125.00
             1085.88,122.45 1087.59,120.46 1090.02,119.17
             1095.54,116.23 1110.94,116.18 1115.78,120.43
             1118.67,122.97 1122.13,132.02 1118.40,134.98
             1116.81,136.24 1112.99,135.99 1111.00,136.00
             1110.83,133.08 1110.76,130.57 1108.57,128.31
             1105.35,124.99 1096.69,124.90 1094.17,129.15
             1092.28,132.35 1092.99,147.47 1093.00,152.00
             1093.00,155.03 1092.71,159.23 1094.74,161.69
             1097.83,165.44 1106.50,164.63 1109.26,160.85
             1111.28,158.09 1110.99,154.25 1111.00,151.00
             1111.00,151.00 1102.00,151.00 1102.00,151.00
             1102.00,151.00 1102.00,143.00 1102.00,143.00 Z
           M 1136.00,172.00
           C 1136.00,172.00 1136.00,125.00 1136.00,125.00
             1136.05,117.67 1136.67,117.05 1144.00,117.00
             1147.52,116.98 1162.27,116.33 1164.40,118.02
             1165.76,119.10 1166.07,121.26 1165.67,122.86
             1165.36,124.10 1164.85,124.83 1163.69,125.40
             1161.65,126.40 1148.19,126.00 1145.00,126.00
             1145.00,129.62 1144.04,137.80 1147.31,139.98
             1150.98,142.42 1165.99,138.33 1163.34,145.87
             1161.70,150.55 1149.17,149.00 1145.00,149.00
             1145.00,149.00 1145.00,164.00 1145.00,164.00
             1148.68,164.00 1162.96,163.05 1164.98,165.60
             1166.16,167.09 1165.98,170.17 1166.00,172.00
             1166.00,172.00 1136.00,172.00 1136.00,172.00 Z
           M 1182.00,172.00
           C 1182.00,172.00 1182.00,126.00 1182.00,126.00
             1182.01,122.63 1181.28,117.44 1186.04,117.33
             1191.07,117.22 1192.92,122.35 1195.00,126.00
             1195.00,126.00 1210.00,152.00 1210.00,152.00
             1210.00,152.00 1210.00,125.00 1210.00,125.00
             1210.02,121.24 1209.79,117.00 1214.96,117.25
             1216.15,117.31 1217.21,117.63 1217.98,118.60
             1219.15,120.06 1218.99,123.19 1219.00,125.00
             1219.00,125.00 1219.00,172.00 1219.00,172.00
             1219.00,172.00 1211.21,170.98 1211.21,170.98
             1211.21,170.98 1203.77,160.00 1203.77,160.00
             1203.77,160.00 1191.00,138.00 1191.00,138.00
             1191.00,138.00 1191.00,172.00 1191.00,172.00
             1191.00,172.00 1182.00,172.00 1182.00,172.00 Z
           M 1249.00,117.43
           C 1258.69,116.23 1269.74,116.70 1272.28,128.00
             1272.58,129.82 1273.19,132.94 1272.28,134.69
             1271.22,137.23 1266.64,137.58 1264.60,135.98
             1262.21,134.10 1263.83,130.25 1260.69,127.60
             1257.41,124.84 1248.48,125.25 1246.17,129.15
             1244.79,131.48 1245.00,135.33 1245.00,138.00
             1244.99,143.25 1243.64,159.11 1247.43,162.40
             1249.24,163.97 1251.74,163.99 1254.00,163.99
             1255.48,163.99 1257.57,163.95 1258.94,163.40
             1265.41,160.80 1260.51,153.98 1267.05,153.38
             1268.09,153.03 1269.74,153.14 1270.69,153.38
             1275.36,155.86 1271.41,166.14 1268.77,168.77
             1264.28,173.26 1255.01,172.08 1249.00,172.00
             1238.35,171.85 1236.05,166.71 1236.00,157.00
             1236.00,157.00 1236.00,139.00 1236.00,139.00
             1236.00,134.32 1235.35,126.99 1237.85,123.04
             1240.67,118.60 1244.28,118.22 1249.00,117.43 Z
           M 1288.00,172.00
           C 1288.00,172.00 1288.00,125.00 1288.00,125.00
             1288.05,117.67 1288.67,117.05 1296.00,117.00
             1299.52,116.98 1314.27,116.33 1316.40,118.02
             1317.76,119.10 1318.07,121.26 1317.67,122.86
             1317.36,124.10 1316.85,124.83 1315.69,125.40
             1313.65,126.40 1300.19,126.00 1297.00,126.00
             1297.00,129.62 1296.04,137.80 1299.31,139.98
             1302.98,142.42 1317.99,138.33 1315.34,145.87
             1313.70,150.55 1301.17,149.00 1297.00,149.00
             1297.00,149.00 1297.00,164.00 1297.00,164.00
             1300.68,164.00 1314.96,163.05 1316.98,165.60
             1318.16,167.09 1317.98,170.17 1318.00,172.00
             1318.00,172.00 1288.00,172.00 1288.00,172.00 Z
           M 422.00,144.00
           C 425.35,144.00 433.07,144.50 435.72,142.83
             440.07,140.09 440.05,129.75 435.72,127.02
             433.32,125.51 425.14,126.00 422.00,126.00
             422.00,126.00 422.00,144.00 422.00,144.00 Z
           M 380.00,129.00
           C 380.00,129.00 378.00,129.00 378.00,129.00
             378.00,129.00 372.00,152.00 372.00,152.00
             372.00,152.00 386.00,152.00 386.00,152.00
             386.00,152.00 380.00,129.00 380.00,129.00 Z
           M 700.00,129.00
           C 700.00,129.00 698.00,129.00 698.00,129.00
             698.00,129.00 692.00,152.00 692.00,152.00
             692.00,152.00 706.00,152.00 706.00,152.00
             706.00,152.00 700.00,129.00 700.00,129.00 Z" />
</svg>
