<?xml version="1.0" encoding="UTF-8" standalone="no"?>
<!DOCTYPE svg PUBLIC "-//W3C//DTD SVG 20010904//EN"
              "http://www.w3.org/TR/2001/REC-SVG-20010904/DTD/svg10.dtd">

<svg xmlns="http://www.w3.org/2000/svg"
     width="16.8056in" height="1.55556in"
     viewBox="0 0 1210 112">
  <path id="Sélection"
        fill="black" stroke="black" stroke-width="1"
        d="M 0.00,82.00
           C 0.00,82.00 0.00,64.00 0.00,64.00
             0.06,54.48 4.51,52.49 11.00,46.00
             11.00,46.00 37.00,20.00 37.00,20.00
             40.99,16.01 53.75,2.16 58.00,0.60
             59.94,-0.12 62.91,0.00 65.00,0.00
             65.00,0.00 88.00,0.00 88.00,0.00
             88.00,0.00 71.09,18.00 71.09,18.00
             71.09,18.00 32.00,58.00 32.00,58.00
             32.00,58.00 46.00,58.00 46.00,58.00
             46.00,58.00 62.00,59.00 62.00,59.00
             62.00,59.00 88.00,59.00 88.00,59.00
             88.00,59.00 88.00,112.00 88.00,112.00
             88.00,112.00 58.00,112.00 58.00,112.00
             58.00,112.00 58.00,82.00 58.00,82.00
             58.00,82.00 0.00,82.00 0.00,82.00 Z
           M 100.00,0.00
           C 100.00,0.00 160.00,0.00 160.00,0.00
             160.00,0.00 160.00,22.00 160.00,22.00
             160.00,24.09 160.12,27.06 159.40,29.00
             158.23,32.18 154.41,35.59 152.00,38.00
             152.00,38.00 131.60,59.00 131.60,59.00
             128.79,63.44 130.00,80.96 130.00,87.00
             130.00,87.00 160.00,59.00 160.00,59.00
             160.00,59.00 160.00,88.00 160.00,88.00
             160.00,88.00 100.00,88.00 100.00,88.00
             100.00,88.00 100.00,65.00 100.00,65.00
             100.00,63.05 99.87,59.95 100.60,58.17
             101.59,55.73 105.99,51.99 108.00,50.00
             108.00,50.00 127.40,30.00 127.40,30.00
             130.21,25.56 129.00,8.04 129.00,2.00
             129.00,2.00 100.00,29.00 100.00,29.00
             100.00,29.00 100.00,0.00 100.00,0.00 Z
           M 250.00,72.00
           C 250.39,64.07 258.62,38.28 261.29,29.00
             262.98,23.12 263.39,17.09 271.00,17.09
             278.61,17.09 279.02,23.12 280.71,29.00
             283.38,38.28 291.61,64.07 292.00,72.00
             292.00,72.00 283.00,72.00 283.00,72.00
             283.00,72.00 280.00,60.00 280.00,60.00
             280.00,60.00 262.00,60.00 262.00,60.00
             262.00,60.00 259.00,72.00 259.00,72.00
             259.00,72.00 250.00,72.00 250.00,72.00 Z
           M 305.00,72.00
           C 305.00,72.00 305.00,26.00 305.00,26.00
             305.00,23.70 304.62,19.59 306.60,18.02
             308.19,16.77 312.01,17.00 314.00,17.00
             319.94,16.99 331.00,16.68 335.66,20.65
             341.18,25.35 341.60,41.23 337.28,46.78
             335.66,48.85 334.32,49.19 332.00,50.00
             332.00,50.00 341.00,72.00 341.00,72.00
             341.00,72.00 332.39,70.98 332.39,70.98
             332.39,70.98 321.61,53.02 321.61,53.02
             321.61,53.02 314.00,52.00 314.00,52.00
             314.00,52.00 314.00,72.00 314.00,72.00
             314.00,72.00 305.00,72.00 305.00,72.00 Z
           M 364.00,26.00
           C 359.71,26.00 349.46,27.62 351.33,20.14
             352.29,16.33 356.96,17.01 360.00,17.00
             360.00,17.00 378.00,17.00 378.00,17.00
             381.61,17.05 386.23,16.97 385.80,21.99
             385.70,23.16 385.35,24.23 384.40,24.98
             382.55,26.44 375.54,26.00 373.00,26.00
             373.00,26.00 373.00,72.00 373.00,72.00
             373.00,72.00 364.00,72.00 364.00,72.00
             364.00,72.00 364.00,26.00 364.00,26.00 Z
           M 398.00,72.00
           C 398.00,72.00 398.00,31.00 398.00,31.00
             398.00,27.35 396.63,18.61 401.13,17.47
             406.26,16.18 406.93,20.15 407.00,24.00
             407.00,24.00 407.00,72.00 407.00,72.00
             407.00,72.00 398.00,72.00 398.00,72.00 Z
           M 425.00,72.00
           C 425.00,72.00 425.00,26.00 425.00,26.00
             425.01,19.26 424.51,17.14 432.00,17.00
             432.00,17.00 446.00,17.00 446.00,17.00
             448.08,17.01 451.74,16.85 453.43,18.17
             455.66,19.94 455.22,24.16 452.69,25.40
             450.65,26.40 437.19,26.00 434.00,26.00
             434.00,26.00 434.00,42.15 434.00,42.15
             434.00,42.15 449.77,42.15 449.77,42.15
             452.51,43.11 453.50,46.35 451.96,48.40
             450.09,50.90 437.40,50.00 434.00,50.00
             434.00,50.00 434.00,72.00 434.00,72.00
             434.00,72.00 425.00,72.00 425.00,72.00 Z
           M 469.00,72.00
           C 469.00,72.00 469.00,24.00 469.00,24.00
             469.07,20.15 469.74,16.18 474.87,17.47
             478.69,18.44 477.99,22.96 478.00,26.00
             478.00,26.00 478.00,72.00 478.00,72.00
             478.00,72.00 469.00,72.00 469.00,72.00 Z
           M 508.00,17.43
           C 517.69,16.23 528.74,16.70 531.28,28.00
             531.58,29.82 532.19,32.94 531.28,34.69
             530.22,37.23 525.64,37.58 523.60,35.98
             521.21,34.10 522.83,30.25 519.69,27.60
             516.41,24.84 507.48,25.25 505.17,29.15
             503.79,31.48 504.00,35.33 504.00,38.00
             503.99,43.25 502.64,59.11 506.43,62.40
             508.24,63.97 510.74,63.99 513.00,63.99
             514.48,63.99 516.57,63.95 517.94,63.40
             524.41,60.80 519.51,53.98 526.05,53.38
             527.09,53.03 528.74,53.14 529.69,53.38
             534.36,55.86 530.41,66.14 527.77,68.77
             523.28,73.26 514.01,72.08 508.00,72.00
             497.35,71.85 495.05,66.71 495.00,57.00
             495.00,57.00 495.00,39.00 495.00,39.00
             495.00,34.32 494.35,26.99 496.85,23.04
             499.67,18.60 503.28,18.22 508.00,17.43 Z
           M 547.00,72.00
           C 547.00,72.00 547.00,24.00 547.00,24.00
             547.07,20.15 547.74,16.18 552.87,17.47
             556.69,18.44 555.99,22.96 556.00,26.00
             556.00,26.00 556.00,72.00 556.00,72.00
             556.00,72.00 547.00,72.00 547.00,72.00 Z
           M 570.00,72.00
           C 570.39,64.07 578.62,38.28 581.29,29.00
             582.98,23.12 583.39,17.09 591.00,17.09
             598.61,17.09 599.02,23.12 600.71,29.00
             603.38,38.28 611.61,64.07 612.00,72.00
             612.00,72.00 603.00,72.00 603.00,72.00
             603.00,72.00 600.00,60.00 600.00,60.00
             600.00,60.00 582.00,60.00 582.00,60.00
             582.00,60.00 579.00,72.00 579.00,72.00
             579.00,72.00 570.00,72.00 570.00,72.00 Z
           M 625.00,72.00
           C 625.00,72.00 625.00,26.00 625.00,26.00
             625.00,24.02 624.77,20.17 626.02,18.60
             626.79,17.63 627.85,17.31 629.04,17.25
             634.21,17.00 633.98,21.24 634.00,25.00
             634.00,25.00 634.00,64.00 634.00,64.00
             634.00,64.00 649.00,64.00 649.00,64.00
             649.00,64.00 654.98,65.60 654.98,65.60
             654.98,65.60 656.00,72.00 656.00,72.00
             656.00,72.00 625.00,72.00 625.00,72.00 Z
           M 694.00,72.00
           C 694.00,72.00 694.00,24.00 694.00,24.00
             694.07,20.15 694.74,16.18 699.87,17.47
             703.69,18.44 702.99,22.96 703.00,26.00
             703.00,26.00 703.00,72.00 703.00,72.00
             703.00,72.00 694.00,72.00 694.00,72.00 Z
           M 721.00,72.00
           C 721.00,72.00 721.00,26.00 721.00,26.00
             721.01,22.63 720.28,17.44 725.04,17.33
             730.07,17.22 731.92,22.35 734.00,26.00
             734.00,26.00 749.00,52.00 749.00,52.00
             749.00,52.00 749.00,25.00 749.00,25.00
             749.02,21.24 748.79,17.00 753.96,17.25
             755.15,17.31 756.21,17.63 756.98,18.60
             758.15,20.06 757.99,23.19 758.00,25.00
             758.00,25.00 758.00,72.00 758.00,72.00
             758.00,72.00 750.21,70.98 750.21,70.98
             750.21,70.98 742.77,60.00 742.77,60.00
             742.77,60.00 730.00,38.00 730.00,38.00
             730.00,38.00 730.00,72.00 730.00,72.00
             730.00,72.00 721.00,72.00 721.00,72.00 Z
           M 784.00,26.00
           C 779.71,26.00 769.46,27.62 771.33,20.14
             772.29,16.33 776.96,17.01 780.00,17.00
             780.00,17.00 798.00,17.00 798.00,17.00
             801.61,17.05 806.23,16.97 805.80,21.99
             805.70,23.16 805.35,24.23 804.40,24.98
             802.55,26.44 795.54,26.00 793.00,26.00
             793.00,26.00 793.00,72.00 793.00,72.00
             793.00,72.00 784.00,72.00 784.00,72.00
             784.00,72.00 784.00,26.00 784.00,26.00 Z
           M 818.00,72.00
           C 818.00,72.00 818.00,25.00 818.00,25.00
             818.05,17.67 818.67,17.05 826.00,17.00
             829.52,16.98 844.27,16.33 846.40,18.02
             847.76,19.10 848.07,21.26 847.67,22.86
             847.36,24.10 846.85,24.83 845.69,25.40
             843.65,26.40 830.19,26.00 827.00,26.00
             827.00,29.62 826.04,37.80 829.31,39.98
             832.98,42.42 847.99,38.33 845.34,45.87
             843.70,50.55 831.17,49.00 827.00,49.00
             827.00,49.00 827.00,64.00 827.00,64.00
             830.68,64.00 844.96,63.05 846.98,65.60
             848.16,67.09 847.98,70.17 848.00,72.00
             848.00,72.00 818.00,72.00 818.00,72.00 Z
           M 864.00,72.00
           C 864.00,72.00 864.00,26.00 864.00,26.00
             864.00,24.02 863.77,20.17 865.02,18.60
             865.79,17.63 866.85,17.31 868.04,17.25
             873.21,17.00 872.98,21.24 873.00,25.00
             873.00,25.00 873.00,64.00 873.00,64.00
             873.00,64.00 888.00,64.00 888.00,64.00
             888.00,64.00 893.98,65.60 893.98,65.60
             893.98,65.60 895.00,72.00 895.00,72.00
             895.00,72.00 864.00,72.00 864.00,72.00 Z
           M 907.00,72.00
           C 907.00,72.00 907.00,26.00 907.00,26.00
             907.00,24.02 906.77,20.17 908.02,18.60
             908.79,17.63 909.85,17.31 911.04,17.25
             916.21,17.00 915.98,21.24 916.00,25.00
             916.00,25.00 916.00,64.00 916.00,64.00
             916.00,64.00 931.00,64.00 931.00,64.00
             931.00,64.00 936.98,65.60 936.98,65.60
             936.98,65.60 938.00,72.00 938.00,72.00
             938.00,72.00 907.00,72.00 907.00,72.00 Z
           M 950.00,72.00
           C 950.00,72.00 950.00,24.00 950.00,24.00
             950.07,20.15 950.74,16.18 955.87,17.47
             959.69,18.44 958.99,22.96 959.00,26.00
             959.00,26.00 959.00,72.00 959.00,72.00
             959.00,72.00 950.00,72.00 950.00,72.00 Z
           M 994.00,43.00
           C 994.00,43.00 1003.00,43.00 1003.00,43.00
             1004.99,43.00 1008.81,42.77 1010.40,44.02
             1012.38,45.59 1012.00,49.70 1012.00,52.00
             1012.01,57.03 1012.58,63.62 1009.30,67.79
             1006.35,71.55 1002.41,71.94 998.00,72.00
             985.91,72.16 976.20,73.86 976.00,58.00
             976.00,58.00 976.00,37.00 976.00,37.00
             976.00,33.62 975.71,28.05 976.89,25.00
             977.88,22.45 979.59,20.46 982.02,19.17
             987.54,16.23 1002.94,16.18 1007.78,20.43
             1010.67,22.97 1014.13,32.02 1010.40,34.98
             1008.81,36.24 1004.99,35.99 1003.00,36.00
             1002.83,33.08 1002.76,30.57 1000.57,28.31
             997.35,24.99 988.69,24.90 986.17,29.15
             984.28,32.35 984.99,47.47 985.00,52.00
             985.00,55.03 984.71,59.23 986.74,61.69
             989.83,65.44 998.50,64.63 1001.26,60.85
             1003.28,58.09 1002.99,54.25 1003.00,51.00
             1003.00,51.00 994.00,51.00 994.00,51.00
             994.00,51.00 994.00,43.00 994.00,43.00 Z
           M 1028.00,72.00
           C 1028.00,72.00 1028.00,25.00 1028.00,25.00
             1028.05,17.67 1028.67,17.05 1036.00,17.00
             1039.52,16.98 1054.27,16.33 1056.40,18.02
             1057.76,19.10 1058.07,21.26 1057.67,22.86
             1057.36,24.10 1056.85,24.83 1055.69,25.40
             1053.65,26.40 1040.19,26.00 1037.00,26.00
             1037.00,29.62 1036.04,37.80 1039.31,39.98
             1042.98,42.42 1057.99,38.33 1055.34,45.87
             1053.70,50.55 1041.17,49.00 1037.00,49.00
             1037.00,49.00 1037.00,64.00 1037.00,64.00
             1040.68,64.00 1054.96,63.05 1056.98,65.60
             1058.16,67.09 1057.98,70.17 1058.00,72.00
             1058.00,72.00 1028.00,72.00 1028.00,72.00 Z
           M 1074.00,72.00
           C 1074.00,72.00 1074.00,26.00 1074.00,26.00
             1074.01,22.63 1073.28,17.44 1078.04,17.33
             1083.07,17.22 1084.92,22.35 1087.00,26.00
             1087.00,26.00 1102.00,52.00 1102.00,52.00
             1102.00,52.00 1102.00,25.00 1102.00,25.00
             1102.02,21.24 1101.79,17.00 1106.96,17.25
             1108.15,17.31 1109.21,17.63 1109.98,18.60
             1111.15,20.06 1110.99,23.19 1111.00,25.00
             1111.00,25.00 1111.00,72.00 1111.00,72.00
             1111.00,72.00 1103.21,70.98 1103.21,70.98
             1103.21,70.98 1095.77,60.00 1095.77,60.00
             1095.77,60.00 1083.00,38.00 1083.00,38.00
             1083.00,38.00 1083.00,72.00 1083.00,72.00
             1083.00,72.00 1074.00,72.00 1074.00,72.00 Z
           M 1141.00,17.43
           C 1150.69,16.23 1161.74,16.70 1164.28,28.00
             1164.58,29.82 1165.19,32.94 1164.28,34.69
             1163.22,37.23 1158.64,37.58 1156.60,35.98
             1154.21,34.10 1155.83,30.25 1152.69,27.60
             1149.41,24.84 1140.48,25.25 1138.17,29.15
             1136.79,31.48 1137.00,35.33 1137.00,38.00
             1136.99,43.25 1135.64,59.11 1139.43,62.40
             1141.24,63.97 1143.74,63.99 1146.00,63.99
             1147.48,63.99 1149.57,63.95 1150.94,63.40
             1157.41,60.80 1152.51,53.98 1159.05,53.38
             1160.09,53.03 1161.74,53.14 1162.69,53.38
             1167.36,55.86 1163.41,66.14 1160.77,68.77
             1156.28,73.26 1147.01,72.08 1141.00,72.00
             1130.35,71.85 1128.05,66.71 1128.00,57.00
             1128.00,57.00 1128.00,39.00 1128.00,39.00
             1128.00,34.32 1127.35,26.99 1129.85,23.04
             1132.67,18.60 1136.28,18.22 1141.00,17.43 Z
           M 1180.00,72.00
           C 1180.00,72.00 1180.00,25.00 1180.00,25.00
             1180.05,17.67 1180.67,17.05 1188.00,17.00
             1191.52,16.98 1206.27,16.33 1208.40,18.02
             1209.76,19.10 1210.07,21.26 1209.67,22.86
             1209.36,24.10 1208.85,24.83 1207.69,25.40
             1205.65,26.40 1192.19,26.00 1189.00,26.00
             1189.00,29.62 1188.04,37.80 1191.31,39.98
             1194.98,42.42 1209.99,38.33 1207.34,45.87
             1205.70,50.55 1193.17,49.00 1189.00,49.00
             1189.00,49.00 1189.00,64.00 1189.00,64.00
             1192.68,64.00 1206.96,63.05 1208.98,65.60
             1210.16,67.09 1209.98,70.17 1210.00,72.00
             1210.00,72.00 1180.00,72.00 1180.00,72.00 Z
           M 314.00,44.00
           C 317.35,44.00 325.07,44.50 327.72,42.83
             332.07,40.09 332.05,29.75 327.72,27.02
             325.32,25.51 317.14,26.00 314.00,26.00
             314.00,26.00 314.00,44.00 314.00,44.00 Z
           M 272.00,29.00
           C 272.00,29.00 270.00,29.00 270.00,29.00
             270.00,29.00 264.00,52.00 264.00,52.00
             264.00,52.00 278.00,52.00 278.00,52.00
             278.00,52.00 272.00,29.00 272.00,29.00 Z
           M 592.00,29.00
           C 592.00,29.00 590.00,29.00 590.00,29.00
             590.00,29.00 584.00,52.00 584.00,52.00
             584.00,52.00 598.00,52.00 598.00,52.00
             598.00,52.00 592.00,29.00 592.00,29.00 Z" />
</svg>
